<svg width="600" height="600" viewBox="0 0 60 60" fill="none" xmlns="http://www.w3.org/2000/svg">
<rect width="600" height="600" transform="matrix(-1 0 0 1 60.0005 0)" fill="#1D1D1D"/>
<rect width="600" height="600" transform="matrix(-1 0 0 1 60.0005 0)" fill="url(#paint0_linear_80_1513)"/>
<rect x="29.0005" y="32" width="22" height="17" fill="url(#paint1_linear_80_1513)"/>
<path d="M23.8645 18.072V20.064C22.6645 20.032 21.3605 20.016 19.9525 20.016C18.5605 20 17.1605 20 15.7525 20.016C14.3445 20.016 13.0405 20.032 11.8405 20.064V18.072C13.0405 18.088 14.3445 18.104 15.7525 18.12C17.1605 18.12 18.5605 18.12 19.9525 18.12C21.3605 18.104 22.6645 18.088 23.8645 18.072ZM18.8485 25.08H16.8565C16.8885 23.88 16.9045 22.576 16.9045 21.168C16.9205 19.76 16.9205 18.36 16.9045 16.968C16.9045 15.56 16.8885 14.256 16.8565 13.056H18.8485C18.8325 14.256 18.8165 15.56 18.8005 16.968C18.8005 18.36 18.8005 19.76 18.8005 21.168C18.8165 22.576 18.8325 23.88 18.8485 25.08Z" fill="white"/>
<path d="M45.8645 41.776V43.768C44.6645 43.736 43.3605 43.72 41.9525 43.72C40.5605 43.704 39.1605 43.704 37.7525 43.72C36.3445 43.72 35.0405 43.736 33.8405 43.768V41.776C35.0405 41.792 36.3445 41.808 37.7525 41.824C39.1605 41.824 40.5605 41.824 41.9525 41.824C43.3605 41.808 44.6645 41.792 45.8645 41.776ZM45.8645 37.696V39.688C44.6645 39.656 43.3605 39.64 41.9525 39.64C40.5605 39.624 39.1605 39.624 37.7525 39.64C36.3445 39.64 35.0405 39.656 33.8405 39.688V37.696C35.0405 37.712 36.3445 37.728 37.7525 37.744C39.1605 37.744 40.5605 37.744 41.9525 37.744C43.3605 37.728 44.6645 37.712 45.8645 37.696Z" fill="white"/>
<path d="M22.1372 44.6324L20.7286 46.041C19.9027 45.1698 18.992 44.2364 17.9964 43.2408C17.0234 42.2452 16.0334 41.2553 15.0265 40.271C14.0309 39.2754 13.0975 38.3646 12.2264 37.5387L13.6349 36.1302C14.4721 36.99 15.3829 37.9234 16.3672 38.9303C17.3628 39.9259 18.3527 40.9159 19.337 41.9002C20.344 42.8844 21.2773 43.7952 22.1372 44.6324ZM13.6349 46.041L12.2264 44.6324C13.0975 43.8065 14.0309 42.8958 15.0265 41.9002C16.0334 40.9159 17.0234 39.9259 17.9964 38.9303C18.992 37.9347 19.9027 37.0013 20.7286 36.1302L22.1372 37.5387C21.2773 38.3759 20.344 39.2867 19.337 40.271C18.3527 41.2553 17.3628 42.2452 16.3672 43.2408C15.3829 44.2477 14.4721 45.1811 13.6349 46.041Z" fill="white"/>
<path d="M34.712 20.104L34.712 18.256L45.848 18.256L45.848 20.104L34.712 20.104Z" fill="white"/>
<defs>
<linearGradient id="paint0_linear_80_1513" x1="55.3846" y1="-2.30769" x2="8.50424e-07" y2="57.1154" gradientUnits="userSpaceOnUse">
<stop stop-color="#2C3237"/>
<stop offset="1" stop-color="#191C1F"/>
</linearGradient>
<linearGradient id="paint1_linear_80_1513" x1="49.5005" y1="31" x2="31.5005" y2="49" gradientUnits="userSpaceOnUse">
<stop stop-color="#F35F69"/>
<stop offset="1" stop-color="#F98D4F"/>
</linearGradient>
</defs>
</svg>
