<svg width="600" height="600" viewBox="0 0 60 60" fill="none" xmlns="http://www.w3.org/2000/svg">
<rect width="600" height="600" />
<rect width="600" height="600" transform="matrix(-1 0 0 1 60.0005 0)" fill="url(#paint0_linear_80_1409)"/>
<path d="M20.0005 13.4453C20.0005 13.4436 20.0002 13.4419 19.9995 13.4404C19.8255 13.0213 19.5423 12.6777 19.1948 12.4314C18.0962 11.6524 16.7604 12.6375 15.8972 13.6713L15.6083 14.0172C14.5614 15.271 13.1215 16.4631 13.0229 18.0935C12.9988 18.492 13.0005 18.8798 13.0005 19.1923C13.0005 33.6884 24.7544 45.4423 39.2505 45.4423C39.4678 45.4423 39.7429 45.4431 40.0451 45.4356C42.1767 45.3822 43.9039 43.731 45.5787 42.4114L45.7708 42.26C47.4524 40.9351 49.0247 38.3633 47.0766 37.4758C47.0515 37.4644 47.0261 37.4534 47.0005 37.4427L35.9341 33.4365C34.979 33.038 33.8716 33.3134 33.2212 34.1161C31.8301 35.8137 29.4209 36.3934 27.6491 35.0981C26.0011 33.8933 24.5471 32.4389 23.3425 30.7907C22.0492 29.0209 22.6296 26.6148 24.3267 25.2274C25.1294 24.5712 25.4048 23.4696 25.0064 22.5146L20.0021 13.4515C20.0011 13.4496 20.0005 13.4474 20.0005 13.4453Z" fill="#ffffff"/>
<defs>
<linearGradient id="paint0_linear_80_1409" x1="55.3846" y1="-2.30769" x2="8.50424e-07" y2="57.1154" gradientUnits="userSpaceOnUse">
<stop stop-color="#D5E96F"/>
<stop offset="1" stop-color="#189025"/>
</linearGradient>
</defs>
</svg>
