<svg width="600" height="600" viewBox="0 0 60 60" fill="none" xmlns="http://www.w3.org/2000/svg">
<rect width="600" height="600" transform="matrix(-1 0 0 1 60 0)" fill="#1D1D1D"/>
<rect width="600" height="600" transform="matrix(-1 0 0 1 60 0)" fill="url(#paint0_linear_80_1466)"/>
<path d="M18.1784 12.4565L16.9799 14.0409C14.0223 17.9506 15.1787 22.8323 15.8045 24.7325C15.4549 25.3195 15.0019 26.221 14.7142 27.3298C14.1667 29.4408 14.4291 31.4597 15.4675 33.2518C15.5452 33.223 15.6227 33.1938 15.6994 33.1642C19.7605 31.4655 25.5162 26.8522 27.8302 24.9236L18.1784 12.4565Z" fill="white"/>
<path d="M37.312 33.9772C41.4991 33.6741 44.8138 30.1729 44.8138 25.9098C44.8138 24.8142 44.5939 23.7694 44.1977 22.8156L47.0509 21.5784L43.6523 20.2357L43.5845 16.5823L41.1298 19.1296C39.8608 18.3018 38.3473 17.8186 36.7225 17.8186C32.2611 17.8186 28.6313 21.4483 28.6313 25.9098C28.6313 26.6258 28.7259 27.3199 28.9013 27.9817C26.0959 30.2684 20.821 34.3292 16.8338 35.9854C13.6798 37.212 10 37.7376 10 37.7376L15.8702 39.8403L12.4531 45.623C12.4531 45.623 18.4655 42.6541 25.5027 42.1817C25.968 43.4446 26.7616 44.5942 27.8365 45.5288C29.3716 46.8636 31.1303 47.5437 33.0068 47.5435C33.6991 47.5435 34.4077 47.4509 35.1268 47.2644C36.2355 46.9769 37.1371 46.5238 37.7241 46.1741C39.6243 46.8001 44.506 47.9563 48.4157 44.9987L50 43.8003L37.312 33.9772ZM38.4786 23.6342C39.3183 23.6342 39.9988 24.3149 39.9988 25.1545C39.9988 25.994 39.3183 26.6747 38.4786 26.6747C37.6391 26.6747 36.9584 25.9941 36.9584 25.1545C36.9584 24.3149 37.6391 23.6342 38.4786 23.6342Z" fill="white"/>
<defs>
<linearGradient id="paint0_linear_80_1466" x1="55.3846" y1="-2.30769" x2="8.50424e-07" y2="57.1154" gradientUnits="userSpaceOnUse">
<stop stop-color="#01C6F7"/>
<stop offset="1" stop-color="#047FFD"/>
</linearGradient>
</defs>
</svg>
