<svg width="600" height="600" viewBox="0 0 60 60" fill="none" xmlns="http://www.w3.org/2000/svg">
<rect width="600" height="600" transform="matrix(-1 0 0 1 60 0)" fill="#1D1D1D"/>
<rect width="600" height="600" transform="matrix(-1 0 0 1 60 0)" fill="url(#paint0_linear_80_1463)"/>
<path d="M30 15.75C13.6667 15.75 9 22.875 9 31.1875C9 39.5 14.8333 44.25 21.8333 44.25H22.4458C24.2104 44.25 25.8292 43.2332 26.6167 41.6227L28.3083 38.1863C28.6292 37.5332 29.2781 37.125 30 37.125C30.7219 37.125 31.3708 37.5332 31.6917 38.1863L33.3833 41.6227C34.1708 43.2332 35.7896 44.25 37.5542 44.25H38.1667C45.1667 44.25 51 39.5 51 31.1875C51 22.875 46.3333 15.75 30 15.75ZM16 30C16 28.7402 16.4917 27.532 17.3668 26.6412C18.242 25.7504 19.429 25.25 20.6667 25.25C21.9043 25.25 23.0913 25.7504 23.9665 26.6412C24.8417 27.532 25.3333 28.7402 25.3333 30C25.3333 31.2598 24.8417 32.468 23.9665 33.3588C23.0913 34.2496 21.9043 34.75 20.6667 34.75C19.429 34.75 18.242 34.2496 17.3668 33.3588C16.4917 32.468 16 31.2598 16 30ZM39.3333 25.25C40.571 25.25 41.758 25.7504 42.6332 26.6412C43.5083 27.532 44 28.7402 44 30C44 31.2598 43.5083 32.468 42.6332 33.3588C41.758 34.2496 40.571 34.75 39.3333 34.75C38.0957 34.75 36.9087 34.2496 36.0335 33.3588C35.1583 32.468 34.6667 31.2598 34.6667 30C34.6667 28.7402 35.1583 27.532 36.0335 26.6412C36.9087 25.7504 38.0957 25.25 39.3333 25.25Z" fill="#ffffff"/>
<defs>
<linearGradient id="paint0_linear_80_1463" x1="55.3846" y1="-2.30769" x2="8.50424e-07" y2="57.1154" gradientUnits="userSpaceOnUse">
<stop stop-color="#4C49B6"/>
<stop offset="1" stop-color="#251F7F"/>
</linearGradient>
</defs>
</svg>
