<svg width="600" height="600" viewBox="0 0 60 60" fill="none" xmlns="http://www.w3.org/2000/svg">
<rect width="600" height="600" transform="matrix(-1 0 0 1 60.0005 0)" fill="url(#paint0_linear_80_1438)"/>
<g clip-path="url(#clip0_80_1438)">
<path d="M30.8372 13.1728L45.7122 19.5478C46.6419 19.9462 47.1598 20.9423 46.954 21.9251C46.7481 22.9079 45.8848 23.6251 44.8755 23.6251V24.1563C44.8755 25.0396 44.1649 25.7501 43.2817 25.7501H16.7192C15.836 25.7501 15.1255 25.0396 15.1255 24.1563V23.6251C14.1161 23.6251 13.2462 22.9145 13.0469 21.9251C12.8477 20.9356 13.3657 19.9396 14.2887 19.5478L29.1637 13.1728C29.695 12.947 30.3059 12.947 30.8372 13.1728ZM38.5005 27.8751H42.7505V40.9106C42.7903 40.9306 42.8301 40.9571 42.87 40.9837L46.0575 43.1087C46.8344 43.6267 47.1864 44.5962 46.9141 45.4927C46.6419 46.3892 45.8118 47.0001 44.8755 47.0001H15.1255C14.1891 47.0001 13.3657 46.3892 13.0934 45.4927C12.8212 44.5962 13.1665 43.6267 13.9501 43.1087L17.1376 40.9837C17.1774 40.9571 17.2173 40.9372 17.2571 40.9106L17.2505 27.8751H21.5005V40.6251H24.1567V27.8751H28.4067V40.6251H31.5942V27.8751H35.8442V40.6251H38.5005V27.8751ZM30.0005 17.2501C29.4369 17.2501 28.8964 17.474 28.4979 17.8725C28.0993 18.271 27.8755 18.8115 27.8755 19.3751C27.8755 19.9387 28.0993 20.4792 28.4979 20.8777C28.8964 21.2762 29.4369 21.5001 30.0005 21.5001C30.564 21.5001 31.1045 21.2762 31.5031 20.8777C31.9016 20.4792 32.1255 19.9387 32.1255 19.3751C32.1255 18.8115 31.9016 18.271 31.5031 17.8725C31.1045 17.474 30.564 17.2501 30.0005 17.2501Z" fill="white"/>
</g>
<defs>
<linearGradient id="paint0_linear_80_1438" x1="55.3846" y1="-2.30769" x2="-2" y2="65" gradientUnits="userSpaceOnUse">
<stop stop-color="#53df68"/>
<stop offset="1" stop-color="#27b85f"/>
</linearGradient>
<clipPath id="clip0_80_1438">
<rect width="34" height="34" fill="white" transform="matrix(-1 0 0 1 47.0005 13)"/>
</clipPath>
</defs>
</svg>
