<svg width="600" height="600" viewBox="0 0 60 60" fill="none" xmlns="http://www.w3.org/2000/svg">
<rect width="600" height="600" transform="matrix(-1 0 0 1 60 0)" fill="#1D1D1D"/>
<rect width="600" height="600" transform="matrix(-1 0 0 1 60 0)" fill="url(#paint0_linear_80_1514)"/>
<path d="M19.232 41.256C17.376 41.256 15.8507 41.1493 14.656 40.936C13.4827 40.7013 12.5653 40.3387 11.904 39.848C11.2427 39.336 10.752 38.6533 10.432 37.8C10.1333 36.9253 9.94133 35.848 9.856 34.568C9.792 33.288 9.76 31.7627 9.76 29.992C9.76 28.2213 9.792 26.696 9.856 25.416C9.94133 24.136 10.1333 23.0693 10.432 22.216C10.752 21.3413 11.2427 20.6587 11.904 20.168C12.5653 19.656 13.4827 19.2933 14.656 19.08C15.8507 18.8453 17.376 18.728 19.232 18.728C21.0667 18.728 22.5707 18.8453 23.744 19.08C24.9387 19.2933 25.8773 19.656 26.56 20.168C27.2427 20.6587 27.7333 21.3413 28.032 22.216C28.3307 23.0693 28.5227 24.136 28.608 25.416C28.6933 26.696 28.736 28.2213 28.736 29.992C28.736 31.7627 28.6933 33.288 28.608 34.568C28.5227 35.848 28.3307 36.9253 28.032 37.8C27.7333 38.6533 27.2427 39.336 26.56 39.848C25.8773 40.3387 24.9387 40.7013 23.744 40.936C22.5707 41.1493 21.0667 41.256 19.232 41.256ZM19.232 36.968C20 36.968 20.6187 36.9467 21.088 36.904C21.5787 36.84 21.9627 36.7013 22.24 36.488C22.5173 36.2533 22.72 35.8907 22.848 35.4C22.976 34.9093 23.0507 34.2267 23.072 33.352C23.1147 32.4773 23.136 31.3573 23.136 29.992C23.136 28.6267 23.1147 27.5067 23.072 26.632C23.0507 25.7573 22.976 25.0747 22.848 24.584C22.72 24.0933 22.5173 23.7413 22.24 23.528C21.9627 23.2933 21.5787 23.1547 21.088 23.112C20.6187 23.048 20 23.016 19.232 23.016C18.4853 23.016 17.8667 23.048 17.376 23.112C16.8853 23.1547 16.5013 23.2933 16.224 23.528C15.9467 23.7413 15.744 24.0933 15.616 24.584C15.488 25.0747 15.4027 25.7573 15.36 26.632C15.3387 27.5067 15.328 28.6267 15.328 29.992C15.328 31.3573 15.3387 32.4773 15.36 33.352C15.4027 34.2267 15.488 34.9093 15.616 35.4C15.744 35.8907 15.9467 36.2533 16.224 36.488C16.5013 36.7013 16.8853 36.84 17.376 36.904C17.8667 36.9467 18.4853 36.968 19.232 36.968Z" fill="#F4F5F7"/>
<path d="M30.288 34L34.392 27.784L30.432 21.76H34.68L36.84 25.24H37.008L39.144 21.76H43.152L39.216 27.76L43.32 34H39.096L36.768 30.304H36.576L34.32 34H30.288Z" fill="#44E661"/>
<rect x="45" y="19" width="6" height="22" fill="#F98C15"/>
<path d="M50 37L50 41L27 41C28.4587 39.6667 29.0741 39 29.0741 37L50 37Z" fill="#F98C15"/>
<defs>
<linearGradient id="paint0_linear_80_1514" x1="55.3846" y1="-2.30769" x2="8.57791e-07" y2="55.5" gradientUnits="userSpaceOnUse">
<stop stop-color="#C976F3"/>
<stop offset="1" stop-color="#7100AB"/>
</linearGradient>
</defs>
</svg>
