<svg width="60" height="60" viewBox="0 0 60 60" fill="none" xmlns="http://www.w3.org/2000/svg">
<rect width="60" height="60" transform="matrix(-1 0 0 1 60.0005 0)" fill="#1D1D1D"/>
<rect width="60" height="60" transform="matrix(-1 0 0 1 60.0005 0)" fill="url(#paint0_linear_80_1778)"/>
<path d="M50.3426 30.2076C41.1472 30.5042 25.7474 45.0388 19.197 52.269L25.4076 40.3114C27.1688 39.2917 28.0957 38.7355 29.4861 37.8086C28.2996 37.9569 25.7783 38.8591 24.666 39.2917L15.5819 35.2131L14.006 29.3733L21.8851 32.3396L12.8937 25.202L11.7813 20.3819L18.7335 24.0897L10.8544 16.9521L9.00049 10L39.4972 31.0418L36.531 27.9829C36.4074 27.8284 38.663 26.5427 39.9607 26.0363C43.0011 24.8498 45.5533 26.1599 46.4494 26.9632C48.1179 28.3537 48.7668 28.8171 50.3426 30.2076Z" fill="black"/>
<path d="M35.1406 27.2413L26.4272 20.3819L24.9441 10.2781L39.2192 24.7385L35.1406 27.2413Z" fill="black"/>
<mask id="mask0_80_1778" style="mask-type:alpha" maskUnits="userSpaceOnUse" x="9" y="10" width="42" height="43">
<path d="M50.3426 30.2076C41.1472 30.5042 25.7474 45.0388 19.197 52.269L25.4076 40.3114C27.1688 39.2917 28.0957 38.7355 29.4861 37.8086C28.2996 37.9569 25.7783 38.8591 24.666 39.2917L15.5819 35.2131L14.006 29.3733L21.8851 32.3396L12.8937 25.202L11.7813 20.3819L18.7335 24.0897L10.8544 16.9521L9.00049 10L39.4972 31.0418L36.531 27.9829C36.4074 27.8284 38.663 26.5427 39.9607 26.0363C43.0011 24.8498 45.5533 26.1599 46.4494 26.9632C48.1179 28.3537 48.7668 28.8171 50.3426 30.2076Z" fill="black"/>
<path d="M35.1406 27.2413L26.4272 20.3819L24.9441 10.2781L39.2192 24.7385L35.1406 27.2413Z" fill="black"/>
</mask>
<g mask="url(#mask0_80_1778)">
<path d="M26.1489 46.5217C28.4663 41.5162 34.7696 32.191 41.4436 34.9348C48.1177 37.6786 34.028 43.8026 26.1489 46.5217Z" fill="#9E3E20"/>
</g>
<defs>
<linearGradient id="paint0_linear_80_1778" x1="55.3846" y1="-2.30769" x2="8.50424e-07" y2="57.1154" gradientUnits="userSpaceOnUse">
<stop stop-color="#DEDEDE"/>
<stop offset="1" stop-color="#B2B2B2"/>
</linearGradient>
</defs>
</svg>
