<svg width="600" height="600" viewBox="0 0 60 60" fill="none" xmlns="http://www.w3.org/2000/svg">
<rect width="600" height="600" transform="matrix(-1 0 0 1 60.0005 0)"/>
<rect width="600" height="600" transform="matrix(-1 0 0 1 60.0005 0)" fill="url(#paint0_linear_80_1791)"/>
<mask id="mask0_80_1791" style="mask-type:alpha" maskUnits="userSpaceOnUse" x="0" y="0" width="600" height="600">
<rect width="600" height="600" transform="matrix(-1 0 0 1 60.0005 0)"/>
<rect width="600" height="600" transform="matrix(-1 0 0 1 60.0005 0)" fill="url(#paint1_linear_80_1791)"/>
</mask>
<g mask="url(#mask0_80_1791)">
<rect x="-13.9995" y="-2" width="27" height="63" fill="#A78E4E"/>
</g>
<g clip-path="url(#clip0_80_1791)">
<path d="M34.0005 30C35.8191 30 37.5633 29.2625 38.8492 27.9497C40.1352 26.637 40.8576 24.8565 40.8576 23C40.8576 21.1435 40.1352 19.363 38.8492 18.0503C37.5633 16.7375 35.8191 16 34.0005 16C32.1819 16 30.4377 16.7375 29.1518 18.0503C27.8658 19.363 27.1433 21.1435 27.1433 23C27.1433 24.8565 27.8658 26.637 29.1518 27.9497C30.4377 29.2625 32.1819 30 34.0005 30ZM31.5523 32.625C26.2755 32.625 22.0005 36.9891 22.0005 42.3758C22.0005 43.2727 22.713 44 23.5916 44H44.4094C45.288 44 46.0005 43.2727 46.0005 42.3758C46.0005 36.9891 41.7255 32.625 36.4487 32.625H31.5523Z" fill="white"/>
</g>
<defs>
<linearGradient id="paint0_linear_80_1791" x1="30" y1="1.49012e-07" x2="30" y2="60" gradientUnits="userSpaceOnUse">
<stop stop-color="#FFDA93"/>
<stop offset="1" stop-color="#BEA35A"/>
</linearGradient>
<linearGradient id="paint1_linear_80_1791" x1="55.3846" y1="-2.30769" x2="8.50424e-07" y2="57.1154" gradientUnits="userSpaceOnUse">
<stop stop-color="#8AB78D"/>
<stop offset="1" stop-color="#348E34"/>
</linearGradient>
<clipPath id="clip0_80_1791">
<rect width="24" height="28" fill="white" transform="translate(22.0005 16)"/>
</clipPath>
</defs>
</svg>
