<svg width="60" height="60" viewBox="0 0 60 60" fill="none" xmlns="http://www.w3.org/2000/svg">
<rect width="60" height="60" transform="matrix(-1 0 0 1 60.0005 0)" fill="#1D1D1D"/>
<rect width="60" height="60" transform="matrix(-1 0 0 1 60.0005 0)" fill="url(#paint0_linear_80_1805)"/>
<g clip-path="url(#clip0_80_1805)">
<path d="M37.2699 32.4741C36.1093 34.1316 34.855 35.9229 34.1101 37.993H24.7279C23.9784 35.8974 22.6995 34.0798 21.5184 32.4011L21.4871 32.3566L21.4864 32.3557C21.1332 31.8548 20.7883 31.3657 20.4578 30.8715L20.4568 30.8699C19.2251 29.0353 18.5005 26.7961 18.5005 24.375C18.5005 18.057 23.4234 13 29.4172 13C35.4105 13 40.3338 18.0566 40.3338 24.382C40.3338 26.8023 39.6097 29.0352 38.3766 30.8783L38.3765 30.8785C38.046 31.3727 37.7012 31.8618 37.3479 32.3627L37.3458 32.3656C37.3206 32.4017 37.2952 32.4379 37.2699 32.4741ZM33.8338 42.375C33.8338 44.9664 31.8223 47 29.4172 47C27.012 47 25.0005 44.9664 25.0005 42.375V42.25H33.8338V42.375Z" stroke="white" stroke-width="2"/>
</g>
<path d="M28.8965 20.008C28.3525 20.008 27.7845 20.08 27.1925 20.224C26.6005 20.368 25.9125 20.6 25.1285 20.92L24.2405 18.544C25.1525 18.128 26.0085 17.84 26.8085 17.68C27.6245 17.52 28.3845 17.44 29.0885 17.44C30.3205 17.44 31.3045 17.624 32.0405 17.992C32.7925 18.36 33.3365 18.864 33.6725 19.504C34.0085 20.128 34.1765 20.848 34.1765 21.664V22.096C34.1765 22.944 34.0485 23.68 33.7925 24.304C33.5365 24.912 33.0885 25.504 32.4485 26.08L31.5845 26.872C31.0565 27.352 30.7445 27.744 30.6485 28.048C30.5525 28.336 30.5045 28.656 30.5045 29.008V29.224H27.6245V28.792C27.6245 28.184 27.7205 27.624 27.9125 27.112C28.1045 26.6 28.5605 26.016 29.2805 25.36L30.1685 24.544C30.6325 24.112 30.9445 23.736 31.1045 23.416C31.2645 23.096 31.3445 22.736 31.3445 22.336V21.904C31.3445 21.344 31.1605 20.888 30.7925 20.536C30.4245 20.184 29.7925 20.008 28.8965 20.008ZM30.5285 34H27.6245V31.144H30.5285V34Z" fill="white"/>
<defs>
<linearGradient id="paint0_linear_80_1805" x1="55.3846" y1="-2.30769" x2="8.50424e-07" y2="57.1154" gradientUnits="userSpaceOnUse">
<stop stop-color="#FFDD7C"/>
<stop offset="1" stop-color="#F9B121"/>
</linearGradient>
<clipPath id="clip0_80_1805">
<rect width="26" height="36" fill="white" transform="translate(17.0005 12)"/>
</clipPath>
</defs>
</svg>
