<svg width="600" height="600" viewBox="0 0 60 60" fill="none" xmlns="http://www.w3.org/2000/svg">
<rect width="600" height="600" transform="matrix(-1 0 0 1 60.0005 0)" fill="#1D1D1D"/>
<rect width="600" height="600" transform="matrix(-1 0 0 1 60.0005 0)" fill="url(#paint0_linear_80_1807)"/>
<g clip-path="url(#clip0_80_1807)">
<path d="M14.7579 24.7751L15.4732 23.0793C13.0236 17.5427 13.186 17.3782 13.6617 16.8979L16.791 13.8405L17.1016 13.5789H17.4641C17.6553 13.5789 18.226 13.5789 22.9829 15.7364L24.7336 15.0305C26.9963 9.42139 27.2284 9.42139 27.8909 9.42139H32.3054C32.9673 9.42139 33.2245 9.42065 35.323 15.0505L37.0662 15.7583C40.2808 14.4009 42.1661 13.7138 42.6749 13.7138L43.0922 13.7267L46.4581 17.0269C46.9689 17.5072 47.1471 17.6765 44.5571 23.1274L45.2698 24.8173C51.0005 27.0327 51.0005 27.2476 51.0005 27.9255V32.254C51.0005 32.9329 51.0005 33.1723 45.2505 35.2319L44.5379 36.9189C46.9872 42.4525 46.8226 42.6186 46.3468 43.0943L43.2175 46.1554L42.9062 46.423H42.542C42.3537 46.423 41.79 46.423 37.0265 44.261L35.2788 44.9717C33.0158 50.5801 32.7833 50.5787 32.1193 50.5787H27.7041C27.0289 50.5787 26.7895 50.5787 24.6846 44.9517L22.9325 44.2432C19.7216 45.6009 17.8407 46.2903 17.3351 46.2903L16.9149 46.2784L13.5232 42.958C13.0407 42.4711 12.8717 42.3028 15.4474 36.8744L14.7396 35.1832C9.00061 32.9655 9.00061 32.7327 9.00061 32.0702V27.7465C9.00123 27.0653 9.00123 26.8275 14.7579 24.7751ZM30.0016 37.2005C34.0499 37.2005 37.3462 33.9683 37.3462 29.9967C37.3462 26.028 34.0497 22.7988 30.0016 22.7988C25.9556 22.7988 22.6662 26.0288 22.6662 29.9967C22.6669 33.9683 25.9563 37.2005 30.0016 37.2005Z" fill="#E3E5E4"/>
</g>
<g clip-path="url(#clip1_80_1807)">
<path d="M14.7579 24.7751L15.4732 23.0793C13.0236 17.5427 13.186 17.3782 13.6617 16.8979L16.791 13.8405L17.1016 13.5789H17.4641C17.6553 13.5789 18.226 13.5789 22.9829 15.7364L24.7336 15.0305C26.9963 9.42139 27.2284 9.42139 27.8909 9.42139H32.3054C32.9673 9.42139 33.2245 9.42065 35.323 15.0505L37.0662 15.7583C40.2808 14.4009 42.1661 13.7138 42.6749 13.7138L43.0922 13.7267L46.4581 17.0269C46.9689 17.5072 47.1471 17.6765 44.5571 23.1274L45.2698 24.8173C51.0005 27.0327 51.0005 27.2476 51.0005 27.9255V32.254C51.0005 32.9329 51.0005 33.1723 45.2505 35.2319L44.5379 36.9189C46.9872 42.4525 46.8226 42.6186 46.3468 43.0943L43.2175 46.1554L42.9062 46.423H42.542C42.3537 46.423 41.79 46.423 37.0265 44.261L35.2788 44.9717C33.0158 50.5801 32.7833 50.5787 32.1193 50.5787H27.7041C27.0289 50.5787 26.7895 50.5787 24.6846 44.9517L22.9325 44.2432C19.7216 45.6009 17.8407 46.2903 17.3351 46.2903L16.9149 46.2784L13.5232 42.958C13.0407 42.4711 12.8717 42.3028 15.4474 36.8744L14.7396 35.1832C9.00061 32.9655 9.00061 32.7327 9.00061 32.0702V27.7465C9.00123 27.0653 9.00123 26.8275 14.7579 24.7751ZM30.0016 37.2005C34.0499 37.2005 37.3462 33.9683 37.3462 29.9967C37.3462 26.028 34.0497 22.7988 30.0016 22.7988C25.9556 22.7988 22.6662 26.0288 22.6662 29.9967C22.6669 33.9683 25.9563 37.2005 30.0016 37.2005Z" fill="#B5B5B5"/>
</g>
<defs>
<linearGradient id="paint0_linear_80_1807" x1="55.3846" y1="-2.30769" x2="8.50424e-07" y2="57.1154" gradientUnits="userSpaceOnUse">
<stop stop-color="#64686D"/>
<stop offset="1" stop-color="#2D3338"/>
</linearGradient>
<clipPath id="clip0_80_1807">
<rect width="22" height="42" fill="white" transform="matrix(-1 0 0 1 30.0005 9)"/>
</clipPath>
<clipPath id="clip1_80_1807">
<rect width="23" height="42" fill="white" transform="matrix(-1 0 0 1 53.0005 9)"/>
</clipPath>
</defs>
</svg>
