<svg width="60" height="60" viewBox="0 0 60 60" fill="none" xmlns="http://www.w3.org/2000/svg">
<rect width="60" height="60" transform="matrix(-1 0 0 1 60.0005 0)" fill="#1D1D1D"/>
<rect width="60" height="60" transform="matrix(-1 0 0 1 60.0005 0)" fill="url(#paint0_linear_80_1804)"/>
<path d="M21.1523 43.9468L21.1523 43.9468L21.1521 43.9467L21.152 43.9466L20.6461 43.7199L20.1141 43.8771L14.7127 45.4723L16.5372 40.6884L16.7698 40.0787L16.4824 39.4932L16.4824 39.4931L16.4823 39.4929L16.4822 39.4929L16.4812 39.4907L16.4757 39.4795L16.452 39.4305C16.4308 39.3865 16.399 39.3198 16.358 39.2329C16.276 39.0588 16.1578 38.8037 16.0153 38.485C15.7299 37.8464 15.3498 36.9578 14.9707 35.9578C14.1876 33.8921 13.5005 31.5823 13.5005 30C13.5005 20.8873 20.8878 13.5 30.0005 13.5C39.1132 13.5 46.5005 20.8873 46.5005 30C46.5005 39.1127 39.1132 46.5 30.0005 46.5C28.5428 46.5 26.3903 45.9114 24.4604 45.2409C23.5261 44.9163 22.6946 44.5909 22.0966 44.3465C21.7981 44.2246 21.5591 44.1233 21.396 44.0531C21.3145 44.0181 21.2521 43.9908 21.2107 43.9726L21.1649 43.9524L21.1543 43.9477L21.1523 43.9468Z" stroke="#D9D9D9" stroke-width="3"/>
<rect x="37.9939" y="25.7445" width="13.532" height="4.65951" transform="rotate(126.087 37.9939 25.7445)" fill="#D9D9D9"/>
<rect x="30.7366" y="25.8845" width="13.532" height="4.65951" transform="rotate(126.087 30.7366 25.8845)" fill="#D9D9D9"/>
<ellipse cx="36.7849" cy="33.4098" rx="2.33841" ry="2.33841" transform="rotate(-180 36.7849 33.4098)" fill="#D9D9D9"/>
<defs>
<linearGradient id="paint0_linear_80_1804" x1="55.3846" y1="-2.30769" x2="8.50424e-07" y2="57.1154" gradientUnits="userSpaceOnUse">
<stop stop-color="#8AB78D"/>
<stop offset="1" stop-color="#348E34"/>
</linearGradient>
</defs>
</svg>
